<svg width="165" height="167" viewBox="0 0 165 167" fill="none" xmlns="http://www.w3.org/2000/svg">
<path d="M163.647 92.89L125.174 70.7118V26.3034C125.174 25.3663 124.653 24.4812 123.872 24.0127L84.0971 1.05356C83.2641 0.58501 82.2749 0.58501 81.494 1.05356L41.7191 24.0127C40.8861 24.4812 40.4175 25.3663 40.4175 26.3034V70.7118L1.94411 92.89C1.11113 93.3585 0.642578 94.2435 0.642578 95.1806V141.099C0.642578 142.036 1.16319 142.921 1.94411 143.39L41.7191 166.349C42.1355 166.557 42.552 166.713 43.0206 166.713C43.4891 166.713 43.9056 166.609 44.3221 166.349L82.7955 144.17L121.217 166.349C121.633 166.557 122.05 166.713 122.518 166.713C122.987 166.713 123.403 166.609 123.82 166.349L163.595 143.39C164.428 142.921 164.896 142.036 164.896 141.099V95.1806C164.896 94.2435 164.376 93.3585 163.595 92.89H163.647ZM80.1925 136.517L48.2788 118.088L80.1925 99.6579V136.465V136.517ZM117.312 72.1695L85.3986 90.5992V53.7918L117.312 72.2216V72.1695ZM80.1925 90.5992L48.2788 72.1695L80.1925 53.7397V90.5472V90.5992ZM88.0537 95.1286L122.57 75.1891L157.087 95.1286L122.57 115.068L88.0537 95.1286ZM119.967 67.6401L88.0537 49.2104L119.967 30.7807V67.5881V67.6401ZM77.5894 49.2104L45.6757 67.6401V30.8327L77.5894 49.2625V49.2104ZM40.4696 159.424L5.95285 139.485V99.6059L40.4696 119.545V159.372V159.424ZM45.7278 159.424V122.617L77.6414 141.047L45.7278 159.477V159.424ZM159.794 139.485L125.278 159.424V119.597L159.794 99.6579V139.537V139.485Z" fill="white"/>
</svg>
