<svg width="129" height="173" viewBox="0 0 129 173" fill="none" xmlns="http://www.w3.org/2000/svg">
<path d="M127.844 0.534668H87.6262C87.3658 0.534668 87.1053 0.743043 87.1053 1.05562V14.4442C87.1053 14.7568 87.3658 14.9652 87.6262 14.9652H103.62L85.855 32.7299C76.8945 25.6969 65.6418 21.4772 53.3993 21.4772C24.3299 21.4772 0.730469 45.1287 0.730469 74.146C0.730469 100.871 20.7874 123.012 46.6269 126.398V141.818H30.7376C30.4251 141.818 30.2167 142.027 30.2167 142.339V156.666C30.2167 156.926 30.4251 157.187 30.7376 157.187H46.6269V172.347C46.6269 172.607 46.8352 172.867 47.1478 172.867H61.4741C61.7346 172.867 61.9951 172.659 61.9951 172.347V157.187H77.8322C78.0927 157.187 78.3532 156.978 78.3532 156.666V142.339C78.3532 142.079 78.1448 141.818 77.8322 141.818H61.9951V126.19C87.0011 122.074 106.12 100.35 106.12 74.1981C106.12 62.9454 102.526 52.4742 96.4825 43.8784L114.039 26.3221V41.2736C114.039 41.534 114.299 41.7945 114.56 41.7945H127.948C128.261 41.7945 128.469 41.5861 128.469 41.2736V1.05562C128.469 0.795139 128.209 0.534668 127.948 0.534668M53.5035 112.905C32.1442 112.905 14.7442 95.5053 14.7442 74.146C14.7442 52.7867 32.1442 35.3867 53.5035 35.3867C74.8628 35.3867 92.2628 52.7867 92.2628 74.146C92.2628 95.5053 74.8628 112.905 53.5035 112.905Z" fill="white"/>
<path d="M77.0508 58.2573H30.0083C29.7478 58.2573 29.4873 58.4657 29.4873 58.7262V70.1352C29.4873 70.3957 29.6957 70.604 30.0083 70.604H77.0508C77.3633 70.604 77.5717 70.3957 77.5717 70.1352V58.7262C77.5717 58.7262 77.3633 58.2573 77.0508 58.2573Z" fill="white"/>
<path d="M77.0508 78.5742H30.0083C29.7478 78.5742 29.4873 78.7826 29.4873 79.0431V90.4521C29.4873 90.4521 29.6957 90.9209 30.0083 90.9209H77.0508C77.3633 90.9209 77.5717 90.7125 77.5717 90.4521V79.0431C77.5717 79.0431 77.3633 78.5742 77.0508 78.5742Z" fill="white"/>
</svg>
