<svg width="273" height="235" viewBox="0 0 273 235" fill="none" xmlns="http://www.w3.org/2000/svg">
<g clip-path="url(#clip0_437_925)">
<path d="M137.84 162.63C161.61 149.12 184.43 136.16 207.89 122.82V191.09C183.86 205.58 159.67 220.16 135.18 234.93C122.94 227.76 110.76 220.63 98.59 213.48C91.28 209.18 83.98 204.86 76.69 200.53C71.96 197.72 71.23 196.31 71.21 189.38C93.32 202.38 115.13 215.2 137.84 228.55V162.61V162.63Z" fill="#015C93"/>
<path d="M64.1 112.04V39.63C87.91 26.54 111.74 13.44 136.18 0V71.47C112.88 84.59 88.81 98.13 64.1 112.04Z" fill="#015C93"/>
<path d="M146.38 77.29C146.38 81.27 146.42 84.38 146.38 87.48C146.14 103.29 146.36 119.12 145.35 134.88C144.98 140.71 141.71 146.36 139.77 152.1L138.12 151.71V78.58C162.89 67.37 188.75 65.67 215.78 72.91C204.48 63.77 184.79 58.36 140.49 71.84C144.48 69.58 148.42 67.24 152.46 65.08C161.71 60.15 170.9 55.09 180.32 50.51C196.54 42.61 212.55 42.3 228.21 52.38C241.64 61.02 255.26 69.37 268.78 77.88C269.87 78.56 270.85 79.4 272.48 80.61C257.65 88.48 243.59 96.83 228.78 103.53C216.24 109.21 202.74 109.43 190.25 102.68C177.08 95.56 164.36 87.62 151.44 80.05C150.06 79.24 148.64 78.52 146.37 77.29H146.38Z" fill="#007B3A"/>
<path d="M127.53 159.1C110.52 167.81 96.92 179.91 79.09 184.04C69.08 186.36 59.93 185.29 50.96 179.6C35.93 170.07 20.44 161.27 5.15 152.15C3.61 151.23 2.14 150.22 0 148.84C6.91 145.09 13.32 141.69 19.66 138.14C28.08 133.43 36.68 128.98 44.76 123.73C56.2 116.29 67.81 115.93 79.06 122.88C92.89 131.43 106.11 140.97 119.58 150.39C98.5 142.55 77.37 135.48 55.14 146.27C80.18 142.66 103.86 146.57 127.54 159.1H127.53Z" fill="#007B3A"/>
</g>
<defs>
<clipPath id="clip0_437_925">
<rect width="272.48" height="234.94" fill="white"/>
</clipPath>
</defs>
</svg>
