<svg width="157" height="166" viewBox="0 0 157 166" fill="none" xmlns="http://www.w3.org/2000/svg">
<path d="M141.846 39.1469L108.809 70.5718C107.56 71.8205 106.936 72.7049 106.936 75.3063V163.442C106.936 164.482 107.768 165.315 108.809 165.315H142.939C143.979 165.315 144.812 164.482 144.812 163.442V39.9273C144.812 38.8868 143.979 37.0137 141.846 39.1469Z" fill="white"/>
<path d="M46.5826 80.1471L13.5449 111.572C12.2962 112.821 11.6719 113.705 11.6719 116.307V163.496C11.6719 164.536 12.5043 165.369 13.5449 165.369H47.6752C48.7158 165.369 49.5482 164.536 49.5482 163.496V80.9275C49.5482 79.8869 48.7158 77.9619 46.5826 80.1471Z" fill="white"/>
<path d="M156.83 1.01099C156.83 1.01099 156.778 0.490709 156.57 0.282597C156.414 0.126513 156.153 0.0224609 155.945 0.0224609H155.789H155.529L130.191 5.74553H129.723C129.723 5.74553 129.359 5.90162 129.255 6.0577C128.891 6.4219 128.891 7.04624 129.255 7.41043L129.515 7.7226L135.29 13.4977L77.9554 70.8325L51.4731 44.3503C51.161 44.0381 50.6927 44.0381 50.3805 44.3503L43.2007 51.5301L0.745845 93.985C0.433677 94.2971 0.433677 94.7654 0.745845 95.0776L7.9257 102.257C8.23787 102.57 8.70613 102.57 9.0183 102.257L50.9528 60.3229L70.2032 79.5732C70.2032 79.5732 70.2032 79.6253 70.2552 79.6773L77.4351 86.8571C77.7472 87.1693 78.2155 87.1693 78.5277 86.8571L143.615 21.7701L149.702 27.8574C150.066 28.2216 150.69 28.2216 151.055 27.8574C151.211 27.7013 151.315 27.4412 151.315 27.2331V27.129L156.882 1.27113V1.01099H156.83Z" fill="white"/>
<path d="M94.3973 85.66L78.4247 101.789C78.1125 102.049 77.6963 102.049 77.3841 101.789L62.8683 87.0127C60.2149 84.3593 59.6426 86.4925 59.6426 87.533V163.494C59.6426 164.534 60.475 165.367 61.5156 165.367H95.698C96.7385 165.367 97.571 164.534 97.571 163.494V86.2844C97.571 85.2438 96.7385 83.3188 94.3973 85.712" fill="white"/>
</svg>
