<svg width="218" height="152" viewBox="0 0 218 152" fill="none" xmlns="http://www.w3.org/2000/svg">
<path d="M217.672 80.4286C217.672 71.3259 211.846 63.9397 203.004 63.9397C198.583 63.9397 193.225 68.7771 190.364 71.742C187.451 68.7771 182.458 63.8877 178.036 63.8877C169.194 63.8877 163.004 71.2739 163.004 80.3766C163.004 84.954 164.772 89.0632 167.685 92.0281L190.364 114.759L212.991 92.0801C215.904 89.0632 217.672 84.954 217.672 80.3766V80.4286Z" fill="white"/>
<path d="M121.079 151.897C121.079 151.897 120.923 151.897 120.871 151.897C119.154 151.793 117.698 150.493 117.438 148.829L105.942 81.7285L88.465 114.082C87.6848 115.487 86.1243 116.267 84.5118 116.007C82.9514 115.747 81.703 114.446 81.4949 112.886L74.1087 61.0783L60.5327 91.5074C59.9085 92.8598 58.6081 93.6921 57.1517 93.6921H4.45996C2.37934 93.6921 0.714844 92.0276 0.714844 89.947C0.714844 87.8663 2.37934 86.2018 4.45996 86.2018H54.7069L72.5483 46.1499C73.2245 44.6414 74.8369 43.7572 76.4494 43.9652C78.1139 44.1733 79.3623 45.4737 79.6224 47.1382L87.2687 100.558L104.486 68.6206C105.214 67.2162 106.774 66.4359 108.387 66.696C109.947 66.9561 111.196 68.1524 111.456 69.7649L122.119 131.923L161.027 2.76896C161.495 1.31252 162.795 0.27221 164.304 0.116164C165.864 0.0121327 167.269 0.844389 167.945 2.19679L188.387 44.5894C189.271 46.462 188.491 48.6466 186.67 49.5829C184.798 50.4672 182.613 49.6869 181.677 47.8664L165.396 14.0563L124.72 149.193C124.252 150.753 122.795 151.845 121.131 151.845L121.079 151.897Z" fill="white"/>
</svg>
