<svg width="205" height="104" viewBox="0 0 205 104" fill="none" xmlns="http://www.w3.org/2000/svg">
<path d="M186.566 11.1065C172.214 -0.271088 153.164 -0.479848 146.17 1.19025L145.335 1.39902C137.298 3.27789 124.511 6.46152 109.533 25.0414C109.428 25.1458 109.376 25.2502 109.272 25.3546L109.063 25.5633C109.063 25.5633 108.802 26.033 108.802 26.294C108.802 26.5027 108.854 26.7115 108.959 26.9203L109.324 27.4944C111.203 30.6258 113.551 34.6967 115.587 38.4022C115.587 38.4022 115.587 38.4544 115.639 38.5066C115.848 38.9241 116.265 39.1851 116.787 39.1851C117.152 39.1851 117.466 39.0285 117.674 38.8198C117.779 38.7154 117.883 38.5588 117.935 38.4544C131.244 20.0833 141.682 17.5259 148.728 15.8558L149.563 15.6471C153.216 14.7599 167.203 14.812 177.276 22.7972C185.157 29.0079 189.123 38.872 189.123 52.1284C189.123 74.3616 178.32 83.0775 169.239 86.4699C155.147 91.7412 141.682 84.6954 141.578 84.6432L140.951 84.3301C133.227 80.9899 121.693 73.9963 110.837 52.1806C88.9173 8.18382 70.5983 4.00856 58.4901 1.29464L57.8638 1.13806C52.3316 -0.114514 33.1776 -1.00175 18.0945 11.0543C10.2137 17.3172 0.819336 29.5298 0.819336 52.0762C0.819336 65.8024 3.63763 74.8314 10.8921 84.3823C12.4579 86.5743 28.6892 107.398 60.0558 101.396C65.0661 100.457 71.9031 98.0562 79.3664 92.4196L86.2555 98.6303C86.7253 99.0479 87.4037 98.9957 87.8213 98.5259C88.03 98.3172 88.0822 98.0562 88.0822 97.7953V97.6909L93.0403 67.0549V66.6896C93.0403 66.3765 92.936 66.0633 92.675 65.8546C92.4662 65.6458 92.2053 65.5936 91.9443 65.5936H91.7356L91.4224 65.6458L62.0912 73.8397L61.5693 73.9441C61.5693 73.9441 61.1518 74.1007 60.9952 74.2573C60.5777 74.727 60.6299 75.4576 61.0996 75.8752L61.4649 76.1883L68.041 82.1381C63.8135 84.9042 60.108 86.1567 57.2897 86.6786C34.5867 91.0105 23.3657 76.1361 22.9482 75.562L22.7916 75.3533C17.5204 68.4119 15.7459 62.5665 15.7459 52.024C15.7459 38.7154 19.6602 28.8513 27.3844 22.6406C37.1963 14.812 50.7137 14.7599 54.5758 15.6471L55.2543 15.8037C65.1705 18.0479 78.7923 21.1271 97.5809 58.8088C107.341 78.3803 119.501 91.1671 134.897 97.8997C136.828 98.8913 146.17 103.327 158.279 103.327C163.341 103.327 168.873 102.545 174.562 100.457C183.487 97.1168 204.154 85.7914 204.154 52.1284C204.154 29.6342 194.656 17.3694 186.618 11.1065" fill="white"/>
</svg>
