<svg width="257" height="193" viewBox="0 0 257 193" fill="none" xmlns="http://www.w3.org/2000/svg">
<g clip-path="url(#clip0_682_697)">
<path d="M129.219 101.644C144.075 93.2 158.337 85.1 173 76.7625V119.431C157.981 128.488 142.862 137.6 127.556 146.831C119.906 142.35 112.294 137.894 104.687 133.425C100.119 130.738 95.5562 128.038 91 125.331C88.0437 123.575 87.5875 122.694 87.575 118.363C101.394 126.488 115.025 134.5 129.219 142.844V101.631V101.644Z" fill="#005E98"/>
<path d="M83.1312 70.025V24.7688C98.0125 16.5875 112.906 8.39375 128.181 0V44.6688C113.619 52.8688 98.575 61.3313 83.1312 70.025Z" fill="#005E98"/>
<path d="M134.556 48.3062C134.556 50.7937 134.581 52.7375 134.556 54.675C134.406 64.5562 134.544 74.45 133.913 84.3C133.681 87.9437 131.638 91.475 130.425 95.0625L129.394 94.8187V49.1125C144.875 42.1062 161.038 41.0437 177.931 45.5687C170.869 39.8562 158.563 36.475 130.875 44.9C133.369 43.4875 135.831 42.025 138.356 40.675C144.138 37.5937 149.881 34.4312 155.769 31.5687C165.906 26.6312 175.913 26.4375 185.7 32.7375C194.094 38.1375 202.606 43.3562 211.056 48.675C211.738 49.1 212.35 49.625 213.369 50.3812C204.1 55.3 195.313 60.5187 186.056 64.7062C178.219 68.2562 169.781 68.3937 161.975 64.175C153.744 59.725 145.794 54.7625 137.719 50.0312C136.856 49.525 135.969 49.075 134.55 48.3062H134.556Z" fill="#007B3C"/>
<path d="M122.775 99.4375C112.144 104.881 103.644 112.444 92.5 115.025C86.2437 116.475 80.525 115.806 74.9187 112.25C65.525 106.294 55.8437 100.794 46.2875 95.0938C45.325 94.5188 44.4062 93.8875 43.0687 93.025C47.3875 90.6813 51.3937 88.5563 55.3562 86.3375C60.6187 83.3938 65.9937 80.6125 71.0437 77.3313C78.1937 72.6813 85.45 72.4563 92.4812 76.8C101.125 82.1438 109.387 88.1063 117.806 93.9938C104.631 89.0938 91.425 84.675 77.5312 91.4188C93.1812 89.1625 107.981 91.6063 122.781 99.4375H122.775Z" fill="#007B3C"/>
<path d="M31.7 160.294H44.175C47.2625 167.869 50.3812 175.513 53.8125 183.931C57.2687 175.556 60.4187 167.931 63.5875 160.263H75.3937V192.506H65.9V165.694C65.7437 165.625 65.5812 165.556 65.425 165.481C61.7312 174.412 58.0375 183.338 54.2812 192.438H47.5812C44.0125 183.644 40.4437 174.875 36.8812 166.1C36.6624 166.163 36.4437 166.219 36.2312 166.281V192.438H31.7V160.287V160.294Z" fill="#005D91"/>
<path d="M80.8251 192.656V160.244C81.6313 160.2 82.5126 160.113 83.3876 160.113C90.5626 160.1 97.7376 160.094 104.913 160.113C111.594 160.131 113.231 161.775 113.219 168.35C113.219 168.556 113.219 168.769 113.219 168.975C113.213 174.163 113.194 174.188 108.956 175.831C110.213 176.944 112.544 178.013 112.75 179.394C113.238 182.7 113.288 186.294 112.45 189.5C111.663 192.531 108.313 192.594 105.588 192.619C98.8313 192.694 92.0688 192.65 85.3126 192.65C83.7938 192.65 82.2751 192.65 80.8251 192.65V192.656ZM103.5 178.606H90.6876V188.413H103.5V178.606ZM90.6938 164.388V174.025H103.525V164.388H90.6938Z" fill="#005D91"/>
<path d="M166.475 164.331V171.363C170.487 171.363 174.3 171.325 178.106 171.381C179.763 171.406 181.437 171.475 183.062 171.769C185.656 172.231 187.05 173.975 187.131 176.556C187.244 180.094 187.256 183.638 187.138 187.175C187.038 190.169 185.413 192.244 182.362 192.306C174.375 192.469 166.381 192.363 158.144 192.363C157.856 191.125 157.569 189.856 157.225 188.356H177.744V180.331C175.05 180.331 172.506 180.331 169.969 180.331C168.2 180.331 166.425 180.331 164.656 180.319C158.744 180.294 156.975 178.575 156.938 172.769C156.919 170.481 156.881 168.188 156.975 165.9C157.1 162.981 158.413 160.606 161.513 160.531C169.7 160.331 177.894 160.463 186.262 160.463C186.462 161.775 186.656 163.063 186.856 164.344H166.469L166.475 164.331Z" fill="#005D91"/>
<path d="M0 192.444V160.269H26.55C26.8125 161.606 27.0625 162.881 27.3438 164.3H9.89375V174.006H25.725V178.438H9.89375V188.431H27.2313C27.0563 189.744 26.8938 191.006 26.7 192.444H0Z" fill="#005D91"/>
<path d="M202.175 188.45H220.013V160.288H224.631C224.631 169.119 224.675 177.75 224.613 186.375C224.581 190.244 222.35 192.563 218.344 192.625C211.681 192.738 205.013 192.7 198.35 192.513C194.15 192.394 192.369 190.319 192.375 186.206C192.375 179.438 192.406 172.669 192.375 165.9C192.369 164.156 192.169 162.413 192.038 160.388H202.175V188.45Z" fill="#005D91"/>
<path d="M139.444 160.35C144.487 171.106 149.462 181.719 154.525 192.519H143.75C142.537 189.4 141.387 186.444 140.206 183.4H124.525C123.369 186.394 122.225 189.363 121.025 192.469H116.044C118.987 186.15 121.819 180.088 124.637 174.019C126.169 170.719 127.75 167.444 129.162 164.094C129.6 163.056 129.531 161.813 129.737 160.35H139.444ZM138.106 179.213C136.156 175.025 134.4 171.25 132.294 166.731C130.237 171.319 128.531 175.113 126.694 179.213H138.106Z" fill="#005D91"/>
<path d="M239.2 188.513H256.663C256.463 189.819 256.269 191.069 256.056 192.469H229.481V160.381H239.2V188.513Z" fill="#005D91"/>
</g>
<defs>
<clipPath id="clip0_682_697">
<rect width="256.663" height="192.688" fill="white"/>
</clipPath>
</defs>
</svg>
