<svg width="48" height="48" viewBox="0 0 48 48" fill="none" xmlns="http://www.w3.org/2000/svg">
<path d="M17.4167 42H31.2506" stroke="#006CCC" stroke-width="2.25" stroke-linecap="round" stroke-linejoin="round"/>
<path d="M15.8087 30.7511C14.1617 29.4696 12.8278 27.8297 11.9081 25.9557C10.9883 24.0818 10.5067 22.0229 10.4999 19.935C10.4653 12.4243 16.5004 6.17696 24.0053 6.00389C26.9098 5.93499 29.7623 6.783 32.1581 8.42768C34.5541 10.0724 36.3718 12.4302 37.3534 15.1668C38.3351 17.9034 38.4308 20.8799 37.6273 23.6741C36.8236 26.4681 35.1614 28.9382 32.8762 30.7338C32.3714 31.1243 31.9625 31.6251 31.6808 32.198C31.3991 32.771 31.252 33.4007 31.2508 34.0392V35.0775C31.2508 35.4447 31.105 35.7969 30.8456 36.0566C30.5861 36.3162 30.2342 36.462 29.8673 36.462H18.8003C18.4334 36.462 18.0815 36.3162 17.822 36.0566C17.5627 35.7969 17.4169 35.4447 17.4169 35.0775V34.0392C17.4125 33.4055 17.2657 32.7809 16.9873 32.2116C16.7089 31.6425 16.3061 31.1433 15.8087 30.7511Z" stroke="#006CCC" stroke-width="2.25" stroke-linecap="round" stroke-linejoin="round"/>
</svg>
