<svg width="121" height="166" viewBox="0 0 121 166" fill="none" xmlns="http://www.w3.org/2000/svg">
<path d="M120.365 0.627014C120.102 0.311219 119.733 0.15332 119.312 0.15332H1.7312C1.31014 0.15332 0.941723 0.311219 0.67856 0.627014C0.415397 0.942809 0.310135 1.36386 0.362768 1.73229L20.1 121.261C20.2052 121.945 20.7842 122.419 21.4684 122.419H45.732L47.3636 141.893H37.1529L60.8902 165.63L84.6801 141.84H74.4694L76.101 122.419H100.786C101.47 122.419 102.049 121.945 102.154 121.261L120.628 1.78493C120.681 1.36387 120.575 0.995443 120.312 0.679648L120.365 0.627014ZM74.8904 96.3129C74.8904 96.3129 69.5219 101.787 60.8375 101.208C52.1532 101.787 46.7847 96.3129 46.7847 96.3129C37.995 87.5233 41.1003 76.5758 44.2057 70.8914C46.1004 67.3651 59.627 46.9963 60.7849 45.312V45.1541C60.7849 45.1541 60.7849 45.1541 60.8375 45.2068V45.2594C61.9955 46.9963 75.522 67.3124 77.4168 70.8388C80.4695 76.5231 83.6274 87.4707 74.8378 96.2603L74.8904 96.3129ZM112.207 25.7854C108.996 24.3643 104.996 24.8906 101.101 26.4696C86.5222 32.3644 76.5747 34.5224 61.2586 29.6802C51.5742 26.6801 42.5214 20.3116 31.837 24.1537C24.7316 26.7327 18.1526 29.1538 10.0998 29.1012L5.46812 5.36394H115.523L112.207 25.7854Z" fill="white"/>
</svg>
